<svg width="966" height="695" viewBox="0 0 966 695" fill="none" xmlns="http://www.w3.org/2000/svg">
<path d="M872 0H10C4.47715 0 0 4.47715 0 10V640C0 645.523 4.47716 650 10 650H872C877.523 650 882 645.523 882 640V10C882 4.47715 877.523 0 872 0Z" fill="#E6E6E6"/>
<path d="M39.5 48C47.5081 48 54 41.5081 54 33.5C54 25.4919 47.5081 19 39.5 19C31.4919 19 25 25.4919 25 33.5C25 41.5081 31.4919 48 39.5 48Z" fill="#FF605C"/>
<path d="M82.5 48C90.5081 48 97 41.5081 97 33.5C97 25.4919 90.5081 19 82.5 19C74.4919 19 68 25.4919 68 33.5C68 41.5081 74.4919 48 82.5 48Z" fill="#FFBD44"/>
<path d="M122.5 48C130.508 48 137 41.5081 137 33.5C137 25.4919 130.508 19 122.5 19C114.492 19 108 25.4919 108 33.5C108 41.5081 114.492 48 122.5 48Z" fill="#00CA4E"/>
<path d="M965.223 578.745H782.265V694.478H965.223V578.745Z" fill="#F2F2F2"/>
<path d="M844.471 614.184L820.076 637.894L844.471 661.635" stroke="#A5A5A5" stroke-width="2.03" stroke-linecap="round" stroke-linejoin="round"/>
<path d="M897.231 614.184L921.626 637.894L897.231 661.635" stroke="#A5A5A5" stroke-width="2.03" stroke-linecap="round" stroke-linejoin="round"/>
<path d="M880.343 614.184L856.949 661.635" stroke="#A5A5A5" stroke-width="2.03" stroke-linecap="round" stroke-linejoin="round"/>
</svg>
