<svg width="43" height="55" viewBox="0 0 43 55" fill="none" xmlns="http://www.w3.org/2000/svg">
<path d="M1 30.3393V32.8631H12.7597V30.3393L9.26357 29.3929V4.62759L16.5736 32.8631H19.4341C18.6695 48.5208 20.5207 53.9989 30.5581 54C34.9264 53.9911 36.6685 52.9812 38.186 48.9524L38.5039 53.6845H42V38.8571H31.5116V42.3274H37.8682C37.4612 48.8354 35.7279 50.4524 30.5581 50.5298C25.4728 50.5022 23.9444 47.8777 23.8837 37.9107C23.9693 26.769 26.0318 25.3906 30.5581 24.9762V29.3929L27.062 30.3393V32.8631H42V21.8214H38.5039L37.5504 25.9226C36.9222 23.8752 36.2811 23.0636 34.6899 22.1369V4.78571L38.8217 3.83929V1H27.062L19.7519 29.0774L12.7597 1H1V3.52381L5.13178 4.62759V29.3929L1 30.3393Z" fill="black"/>
<path d="M30.2403 21.506V4.78571L25.7907 22.1369C27.5305 21.6078 28.5047 21.4363 30.2403 21.506Z" fill="white"/>
<path d="M34.6899 29.3929V25.9226C36.6063 26.9342 37.0573 27.9001 37.2326 30.0238L34.6899 29.3929Z" fill="white"/>
<path d="M1 32.8631H0.5V33.3631H1V32.8631ZM1 30.3393L0.888361 29.8519L0.5 29.9409V30.3393H1ZM5.13178 29.3929L5.24342 29.8802L5.63178 29.7913V29.3929H5.13178ZM5.13178 4.62759H5.63178V4.24363L5.26083 4.14453L5.13178 4.62759ZM1 3.52381H0.5V3.90777L0.870953 4.00687L1 3.52381ZM1 1V0.5H0.5V1H1ZM12.7597 1L13.2449 0.879173L13.1504 0.5H12.7597V1ZM19.7519 29.0774L19.2668 29.1982L20.2358 29.2034L19.7519 29.0774ZM27.062 1V0.5H26.6755L26.5781 0.874022L27.062 1ZM38.8217 1H39.3217V0.5H38.8217V1ZM38.8217 3.83929L38.9333 4.32666L39.3217 4.2377V3.83929H38.8217ZM34.6899 4.78571L34.5783 4.29834L34.1899 4.3873V4.78571H34.6899ZM34.6899 22.1369H34.1899V22.4243L34.4383 22.569L34.6899 22.1369ZM37.5504 25.9226L37.0724 26.0693L37.617 27.8443L38.0374 26.0358L37.5504 25.9226ZM38.5039 21.8214V21.3214H38.1068L38.0169 21.7082L38.5039 21.8214ZM42 21.8214H42.5V21.3214H42V21.8214ZM42 32.8631V33.3631H42.5V32.8631H42ZM27.062 32.8631H26.562V33.3631H27.062V32.8631ZM27.062 30.3393L26.9314 29.8567L26.562 29.9566V30.3393H27.062ZM30.5581 29.3929L30.6888 29.8755L31.0581 29.7755V29.3929H30.5581ZM30.5581 24.9762H31.0581V24.4283L30.5125 24.4783L30.5581 24.9762ZM23.8837 37.9107L23.3837 37.9069L23.3837 37.9138L23.8837 37.9107ZM30.5581 50.5298L30.5554 51.0299L30.5656 51.0297L30.5581 50.5298ZM37.8682 42.3274L38.3672 42.3586L38.4005 41.8274H37.8682V42.3274ZM31.5116 42.3274H31.0116V42.8274H31.5116V42.3274ZM31.5116 38.8571V38.3571H31.0116V38.8571H31.5116ZM42 38.8571H42.5V38.3571H42V38.8571ZM42 53.6845V54.1845H42.5V53.6845H42ZM38.5039 53.6845L38.005 53.718L38.0363 54.1845H38.5039V53.6845ZM38.186 48.9524L38.6849 48.9189L37.7181 48.7761L38.186 48.9524ZM30.5581 54L30.5581 54.5L30.5592 54.5L30.5581 54ZM19.4341 32.8631L19.9335 32.8875L19.9591 32.3631H19.4341V32.8631ZM16.5736 32.8631L16.0896 32.9884L16.1866 33.3631H16.5736V32.8631ZM9.26357 4.62759L9.74761 4.50227L8.76357 4.62759H9.26357ZM9.26357 29.3929H8.76357V29.7755L9.13291 29.8755L9.26357 29.3929ZM12.7597 30.3393H13.2597V29.9566L12.8903 29.8567L12.7597 30.3393ZM12.7597 32.8631V33.3631H13.2597V32.8631H12.7597ZM25.7907 22.1369L25.3058 22.0148L25.1034 22.8187L25.9089 22.6227L25.7907 22.1369ZM30.2403 4.47024H30.7403L29.7555 4.34812L30.2403 4.47024ZM30.2403 21.506L30.2421 22.0059L30.7403 22.0042V21.506H30.2403ZM34.6899 25.9226L34.9233 25.4804L34.1899 25.0933V25.9226H34.6899ZM34.6899 29.3929H34.1899V29.7839L34.5695 29.8781L34.6899 29.3929ZM37.2326 30.0238L37.1121 30.5091L37.7882 30.6768L37.7309 29.9827L37.2326 30.0238ZM30.2403 4.78571H30.7403L29.756 4.66151L30.2403 4.78571ZM1.5 32.8631V30.3393H0.5V32.8631H1.5ZM1.11164 30.8267L5.24342 29.8802L5.02014 28.9055L0.888361 29.8519L1.11164 30.8267ZM5.63178 29.3929V4.62759H4.63178V29.3929H5.63178ZM5.26083 4.14453L1.12905 3.04075L0.870953 4.00687L5.00274 5.11065L5.26083 4.14453ZM1.5 3.52381V1H0.5V3.52381H1.5ZM1 1.5H12.7597V0.5H1V1.5ZM12.2745 1.12083L19.2668 29.1982L20.2371 28.9566L13.2449 0.879173L12.2745 1.12083ZM20.2358 29.2034L27.5459 1.12598L26.5781 0.874022L19.2681 28.9514L20.2358 29.2034ZM27.062 1.5H38.8217V0.5H27.062V1.5ZM38.3217 1V3.83929H39.3217V1H38.3217ZM38.7101 3.35191L34.5783 4.29834L34.8016 5.27309L38.9333 4.32666L38.7101 3.35191ZM34.1899 4.78571V22.1369H35.1899V4.78571H34.1899ZM34.4383 22.569C35.2043 23.0151 35.701 23.4102 36.0835 23.9124C36.4694 24.419 36.7656 25.0693 37.0724 26.0693L38.0284 25.776C37.7071 24.7286 37.3686 23.9493 36.8791 23.3065C36.3862 22.6594 35.7668 22.1854 34.9416 21.7048L34.4383 22.569ZM38.0374 26.0358L38.9909 21.9347L38.0169 21.7082L37.0634 25.8094L38.0374 26.0358ZM38.5039 22.3214H42V21.3214H38.5039V22.3214ZM41.5 21.8214V32.8631H42.5V21.8214H41.5ZM42 32.3631H27.062V33.3631H42V32.3631ZM27.562 32.8631V30.3393H26.562V32.8631H27.562ZM27.1927 30.8219L30.6888 29.8755L30.4275 28.9102L26.9314 29.8567L27.1927 30.8219ZM31.0581 29.3929V24.9762H30.0581V29.3929H31.0581ZM30.5125 24.4783C28.2164 24.6885 26.3519 25.1567 25.1289 27.1602C23.9564 29.0811 23.4265 32.3433 23.3837 37.9069L24.3837 37.9146C24.4265 32.3364 24.9707 29.3386 25.9824 27.6813C26.9436 26.1066 28.3735 25.6783 30.6037 25.4741L30.5125 24.4783ZM23.3837 37.9138C23.414 42.8864 23.8044 46.1552 24.8964 48.1845C25.4552 49.2229 26.2006 49.9449 27.165 50.4002C28.1164 50.8493 29.2471 51.0227 30.5554 51.0298L30.5608 50.0298C29.3265 50.0231 28.3592 49.8581 27.5919 49.4959C26.8376 49.1398 26.2436 48.5777 25.777 47.7106C24.8182 45.9289 24.4141 42.902 24.3837 37.9077L23.3837 37.9138ZM30.5656 51.0297C33.1756 50.9907 35.0883 50.5672 36.367 49.1788C37.6256 47.8122 38.1633 45.6197 38.3672 42.3586L37.3692 42.2962C37.1661 45.5431 36.6337 47.4131 35.6314 48.5013C34.6493 49.5677 33.1105 49.9915 30.5507 50.0298L30.5656 51.0297ZM37.8682 41.8274H31.5116V42.8274H37.8682V41.8274ZM32.0116 42.3274V38.8571H31.0116V42.3274H32.0116ZM31.5116 39.3571H42V38.3571H31.5116V39.3571ZM41.5 38.8571V53.6845H42.5V38.8571H41.5ZM42 53.1845H38.5039V54.1845H42V53.1845ZM39.0028 53.651L38.6849 48.9189L37.6872 48.9859L38.005 53.718L39.0028 53.651ZM37.7181 48.7761C36.973 50.7545 36.2069 51.8932 35.1697 52.5638C34.1243 53.2396 32.7193 53.4956 30.5571 53.5L30.5592 54.5C32.7652 54.4955 34.4154 54.2421 35.7126 53.4036C37.0179 52.5597 37.8816 51.1791 38.654 49.1286L37.7181 48.7761ZM30.5582 53.5C28.0879 53.4997 26.1741 53.1614 24.6951 52.4484C23.2305 51.7423 22.1602 50.6536 21.3948 49.0837C20.6225 47.4996 20.157 45.4166 19.9365 42.7303C19.7163 40.0471 19.7428 36.7941 19.9335 32.8875L18.9347 32.8387C18.7432 36.761 18.7143 40.0644 18.9398 42.8121C19.1651 45.5567 19.6463 47.7792 20.4959 49.5219C21.3525 51.2789 22.5792 52.5385 24.2608 53.3492C25.928 54.1529 28.0096 54.4997 30.5581 54.5L30.5582 53.5ZM19.4341 32.3631H16.5736V33.3631H19.4341V32.3631ZM17.0577 32.7378L9.74761 4.50227L8.77952 4.75291L16.0896 32.9884L17.0577 32.7378ZM8.76357 4.62759V29.3929H9.76357V4.62759H8.76357ZM9.13291 29.8755L12.629 30.8219L12.8903 29.8567L9.39422 28.9102L9.13291 29.8755ZM12.2597 30.3393V32.8631H13.2597V30.3393H12.2597ZM12.7597 32.3631H1V33.3631H12.7597V32.3631ZM26.2756 22.259L30.7252 4.59236L29.7555 4.34812L25.3058 22.0148L26.2756 22.259ZM29.7403 4.47024V21.506H30.7403V4.47024H29.7403ZM30.2385 21.006C28.564 21.0119 27.5284 21.1996 25.6725 21.6511L25.9089 22.6227C27.7271 22.1804 28.6776 22.0115 30.2421 22.0059L30.2385 21.006ZM34.1899 25.9226V29.3929H35.1899V25.9226H34.1899ZM34.5695 29.8781L37.1121 30.5091L37.353 29.5385L34.8103 28.9076L34.5695 29.8781ZM37.7304 29.9774C37.6181 28.7716 37.3676 27.9133 36.8937 27.2121C36.4248 26.5182 35.769 26.0282 34.9626 25.5035L34.4173 26.3417C35.209 26.8568 35.7164 27.2559 36.0651 27.772C36.4089 28.2807 36.6306 28.9531 36.7347 30.0702L37.7304 29.9774ZM29.7403 4.78571V21.506H30.7403V4.78571H29.7403ZM30.2604 21.0064C28.4565 20.9339 27.4254 21.1172 25.6452 21.6585L25.9362 22.6153C27.6356 22.0985 28.5529 21.9386 30.2203 22.0055L30.2604 21.0064ZM26.275 22.2611L30.7246 4.90992L29.756 4.66151L25.3064 22.0127L26.275 22.2611ZM37.7309 29.9827C37.6418 28.9034 37.4786 28.0364 37.0446 27.3018C36.6046 26.5571 35.9231 26.0082 34.9233 25.4804L34.4565 26.3648C35.3731 26.8486 35.8752 27.2884 36.1837 27.8105C36.4981 28.3426 36.6481 29.0205 36.7343 30.0649L37.7309 29.9827Z" fill="#121212"/>
</svg>
