<svg width="525" height="209" viewBox="0 0 525 209" fill="none" xmlns="http://www.w3.org/2000/svg">
<path d="M519.7 0H5.13062C2.36919 0 0.129211 2.23858 0.127479 5L0.00317733 203.157C0.00144513 205.919 2.23861 208.157 5.00003 208.157H519.569C522.331 208.157 524.571 205.919 524.572 203.157L524.697 5C524.698 2.23858 522.461 0 519.7 0Z" fill="#FFBD44"/>
<path opacity="0.58" d="M476.043 35L184.086 35C181.325 35 179.085 37.2386 179.083 40L179.003 168C179.001 170.761 181.239 173 184 173L475.957 173C478.718 173 480.958 170.761 480.96 168L481.04 40C481.042 37.2386 478.804 35 476.043 35Z" fill="#FAFAFA"/>
<path d="M84.9352 158.594C114.927 158.594 139.24 134.261 139.24 104.244C139.24 74.2281 114.927 49.895 84.9352 49.895C54.9436 49.895 30.6306 74.2281 30.6306 104.244C30.6306 134.261 54.9436 158.594 84.9352 158.594Z" fill="#FAFAFA"/>
<path d="M200.904 70.5957C199.991 71.1572 198.868 71.438 197.535 71.438C195.341 71.438 193.545 70.6781 192.145 69.1582C190.685 67.6309 189.955 65.542 189.955 62.8916C189.955 60.2113 190.692 58.0625 192.167 56.4453C193.642 54.8281 195.592 54.0195 198.018 54.0195C200.122 54.0195 201.81 54.5549 203.083 55.6255C204.363 56.6886 205.097 58.0176 205.284 59.6123H201.881C201.619 58.4818 200.979 57.6919 199.961 57.2427C199.392 56.9956 198.759 56.8721 198.063 56.8721C196.73 56.8721 195.633 57.3774 194.772 58.3882C193.919 59.3914 193.492 60.9038 193.492 62.9253C193.492 64.9618 193.956 66.403 194.885 67.249C195.813 68.0951 196.869 68.5181 198.052 68.5181C199.212 68.5181 200.163 68.1849 200.904 67.5186C201.646 66.8447 202.102 65.965 202.274 64.8794H198.445V62.1167H205.34V71H203.049L202.701 68.9336C202.035 69.7197 201.436 70.2738 200.904 70.5957ZM214.549 61.7124C213.262 61.7124 212.397 62.1317 211.955 62.9702C211.708 63.4419 211.584 64.1681 211.584 65.1489V71H208.361V58.7588H211.416V60.8926C211.91 60.0765 212.341 59.5187 212.708 59.2192C213.306 58.7176 214.085 58.4668 215.043 58.4668C215.103 58.4668 215.152 58.4705 215.189 58.478C215.234 58.478 215.328 58.4818 215.47 58.4893V61.7686C215.268 61.7461 215.088 61.7311 214.931 61.7236C214.774 61.7161 214.647 61.7124 214.549 61.7124ZM217.817 60.084C218.663 59.0059 220.116 58.4668 222.175 58.4668C223.515 58.4668 224.705 58.7326 225.746 59.2642C226.787 59.7957 227.307 60.799 227.307 62.2739V67.8892C227.307 68.2785 227.315 68.7502 227.33 69.3042C227.352 69.7235 227.416 70.008 227.521 70.1577C227.625 70.3075 227.783 70.431 227.992 70.5283V71H224.511C224.413 70.7529 224.346 70.5208 224.309 70.3037C224.271 70.0866 224.241 69.8395 224.219 69.5625C223.777 70.0417 223.268 70.4497 222.691 70.7866C222.003 71.1834 221.224 71.3818 220.355 71.3818C219.247 71.3818 218.33 71.0674 217.604 70.4385C216.885 69.8021 216.526 68.9036 216.526 67.7432C216.526 66.2383 217.106 65.1489 218.267 64.4751C218.903 64.1082 219.839 63.8462 221.074 63.689L222.164 63.5542C222.755 63.4793 223.178 63.3857 223.433 63.2734C223.889 63.0788 224.118 62.7756 224.118 62.3638C224.118 61.8621 223.942 61.5177 223.59 61.3306C223.245 61.1359 222.736 61.0386 222.062 61.0386C221.306 61.0386 220.771 61.2257 220.457 61.6001C220.232 61.8771 220.082 62.2515 220.007 62.7231H216.919C216.986 61.6525 217.286 60.7728 217.817 60.084ZM220.198 68.6865C220.498 68.9336 220.865 69.0571 221.299 69.0571C221.988 69.0571 222.62 68.855 223.197 68.4507C223.781 68.0464 224.084 67.3089 224.106 66.2383V65.0479C223.904 65.1751 223.698 65.2799 223.489 65.3623C223.287 65.4372 223.006 65.5083 222.646 65.5757L221.928 65.7104C221.254 65.8302 220.771 65.9762 220.479 66.1484C219.985 66.4404 219.738 66.8934 219.738 67.5073C219.738 68.0539 219.891 68.4469 220.198 68.6865ZM239.604 71H229.037V68.5068L235.314 61.3643H229.463V58.7588H239.391V61.4204L233.181 68.3721H239.604V71ZM244.95 58.7588V71H241.705V58.7588H244.95ZM244.95 54.3452V57.2988H241.705V54.3452H244.95ZM258.539 67.4062C258.457 68.1325 258.079 68.87 257.405 69.6187C256.357 70.8091 254.889 71.4043 253.002 71.4043C251.445 71.4043 250.071 70.9027 248.881 69.8994C247.69 68.8962 247.095 67.264 247.095 65.0029C247.095 62.8841 247.631 61.2594 248.701 60.1289C249.779 58.9984 251.176 58.4331 252.89 58.4331C253.908 58.4331 254.826 58.624 255.642 59.0059C256.458 59.3877 257.132 59.9904 257.663 60.814C258.142 61.5402 258.453 62.3825 258.595 63.3408C258.678 63.9023 258.711 64.7109 258.696 65.7666H250.318C250.363 66.9945 250.749 67.8555 251.475 68.3496C251.917 68.6566 252.448 68.8101 253.07 68.8101C253.729 68.8101 254.264 68.6229 254.676 68.2485C254.9 68.0464 255.099 67.7656 255.271 67.4062H258.539ZM255.372 63.6553C255.32 62.8092 255.061 62.1691 254.597 61.7349C254.14 61.2931 253.571 61.0723 252.89 61.0723C252.149 61.0723 251.572 61.3044 251.161 61.7686C250.756 62.2327 250.502 62.8617 250.397 63.6553H255.372ZM277.519 60.0728C278.507 61.1284 279.001 62.6782 279.001 64.7222C279.001 66.8784 278.514 68.5218 277.541 69.6523C276.575 70.7829 275.329 71.3481 273.801 71.3481C272.828 71.3481 272.019 71.1048 271.375 70.6182C271.024 70.3486 270.679 69.9556 270.342 69.439V75.8179H267.175V58.7588H270.241V60.5669C270.586 60.0353 270.952 59.616 271.342 59.3091C272.053 58.7625 272.899 58.4893 273.88 58.4893C275.31 58.4893 276.523 59.0171 277.519 60.0728ZM275.699 64.8794C275.699 63.936 275.482 63.1012 275.048 62.375C274.621 61.6488 273.925 61.2856 272.959 61.2856C271.799 61.2856 271.001 61.8359 270.567 62.9365C270.342 63.5205 270.23 64.2617 270.23 65.1602C270.23 66.5827 270.608 67.5822 271.364 68.1587C271.813 68.4956 272.345 68.6641 272.959 68.6641C273.85 68.6641 274.528 68.3197 274.992 67.6309C275.463 66.9421 275.699 66.0249 275.699 64.8794ZM291.804 67.4062C291.721 68.1325 291.343 68.87 290.669 69.6187C289.621 70.8091 288.154 71.4043 286.267 71.4043C284.71 71.4043 283.336 70.9027 282.146 69.8994C280.955 68.8962 280.36 67.264 280.36 65.0029C280.36 62.8841 280.895 61.2594 281.966 60.1289C283.044 58.9984 284.44 58.4331 286.155 58.4331C287.173 58.4331 288.09 58.624 288.906 59.0059C289.722 59.3877 290.396 59.9904 290.928 60.814C291.407 61.5402 291.718 62.3825 291.86 63.3408C291.942 63.9023 291.976 64.7109 291.961 65.7666H283.583C283.628 66.9945 284.014 67.8555 284.74 68.3496C285.181 68.6566 285.713 68.8101 286.334 68.8101C286.993 68.8101 287.529 68.6229 287.94 68.2485C288.165 68.0464 288.363 67.7656 288.536 67.4062H291.804ZM288.637 63.6553C288.584 62.8092 288.326 62.1691 287.862 61.7349C287.405 61.2931 286.836 61.0723 286.155 61.0723C285.414 61.0723 284.837 61.3044 284.425 61.7686C284.021 62.2327 283.766 62.8617 283.662 63.6553H288.637ZM300.283 61.7124C298.995 61.7124 298.13 62.1317 297.688 62.9702C297.441 63.4419 297.318 64.1681 297.318 65.1489V71H294.095V58.7588H297.149V60.8926C297.644 60.0765 298.074 59.5187 298.441 59.2192C299.04 58.7176 299.819 58.4668 300.777 58.4668C300.837 58.4668 300.885 58.4705 300.923 58.478C300.968 58.478 301.061 58.4818 301.204 58.4893V61.7686C301.001 61.7461 300.822 61.7311 300.665 61.7236C300.507 61.7161 300.38 61.7124 300.283 61.7124ZM312.782 58.7588V71H309.537V58.7588H312.782ZM312.782 54.3452V57.2988H309.537V54.3452H312.782ZM315.96 54.4463H319.161V71H315.96V54.4463ZM335.569 62.1279C335.299 61.5365 334.771 61.2407 333.985 61.2407C333.072 61.2407 332.458 61.5365 332.144 62.1279C331.971 62.4648 331.885 62.9665 331.885 63.6328V71H328.64V58.7812H331.75V60.5669C332.147 59.9305 332.522 59.4775 332.874 59.208C333.495 58.7288 334.3 58.4893 335.288 58.4893C336.224 58.4893 336.98 58.6951 337.557 59.1069C338.021 59.4888 338.373 59.9792 338.612 60.5781C339.032 59.8594 339.552 59.3315 340.173 58.9946C340.832 58.6577 341.566 58.4893 342.375 58.4893C342.914 58.4893 343.445 58.5941 343.969 58.8037C344.493 59.0133 344.969 59.3802 345.396 59.9043C345.74 60.3311 345.972 60.8551 346.092 61.4766C346.167 61.8883 346.204 62.491 346.204 63.2847L346.182 71H342.902V63.2061C342.902 62.7419 342.827 62.36 342.678 62.0605C342.393 61.4915 341.869 61.207 341.105 61.207C340.222 61.207 339.612 61.5739 339.275 62.3076C339.103 62.6969 339.017 63.1649 339.017 63.7114V71H335.793V63.7114C335.793 62.9852 335.719 62.4574 335.569 62.1279ZM359.636 67.4062C359.553 68.1325 359.175 68.87 358.501 69.6187C357.453 70.8091 355.986 71.4043 354.099 71.4043C352.542 71.4043 351.168 70.9027 349.978 69.8994C348.787 68.8962 348.192 67.264 348.192 65.0029C348.192 62.8841 348.727 61.2594 349.798 60.1289C350.876 58.9984 352.272 58.4331 353.987 58.4331C355.005 58.4331 355.922 58.624 356.738 59.0059C357.554 59.3877 358.228 59.9904 358.76 60.814C359.239 61.5402 359.55 62.3825 359.692 63.3408C359.774 63.9023 359.808 64.7109 359.793 65.7666H351.415C351.46 66.9945 351.846 67.8555 352.572 68.3496C353.014 68.6566 353.545 68.8101 354.167 68.8101C354.825 68.8101 355.361 68.6229 355.772 68.2485C355.997 68.0464 356.195 67.7656 356.368 67.4062H359.636ZM356.469 63.6553C356.416 62.8092 356.158 62.1691 355.694 61.7349C355.237 61.2931 354.668 61.0723 353.987 61.0723C353.246 61.0723 352.669 61.3044 352.257 61.7686C351.853 62.2327 351.598 62.8617 351.494 63.6553H356.469ZM370.395 59.3203C371.353 59.9342 371.903 60.9899 372.045 62.4873H368.845C368.8 62.0755 368.684 61.7498 368.497 61.5103C368.145 61.076 367.546 60.8589 366.7 60.8589C366.003 60.8589 365.506 60.9674 365.206 61.1846C364.914 61.4017 364.768 61.6562 364.768 61.9482C364.768 62.3151 364.925 62.5809 365.24 62.7456C365.554 62.9178 366.666 63.2135 368.575 63.6328C369.848 63.9323 370.803 64.3853 371.439 64.9917C372.068 65.6056 372.382 66.373 372.382 67.2939C372.382 68.5068 371.929 69.4989 371.023 70.27C370.125 71.0337 368.732 71.4155 366.846 71.4155C364.922 71.4155 363.499 71.0112 362.578 70.2026C361.665 69.3866 361.208 68.3496 361.208 67.0918H364.454C364.521 67.6608 364.667 68.0651 364.892 68.3047C365.288 68.7314 366.022 68.9448 367.093 68.9448C367.722 68.9448 368.22 68.8512 368.586 68.6641C368.961 68.4769 369.148 68.1961 369.148 67.8218C369.148 67.4624 368.998 67.1891 368.699 67.002C368.399 66.8148 367.287 66.4928 365.363 66.0361C363.978 65.6917 363.001 65.2612 362.432 64.7446C361.863 64.2355 361.579 63.5018 361.579 62.5435C361.579 61.4129 362.02 60.4434 362.904 59.6348C363.795 58.8187 365.045 58.4106 366.655 58.4106C368.182 58.4106 369.429 58.7139 370.395 59.3203ZM383.197 59.3203C384.156 59.9342 384.706 60.9899 384.848 62.4873H381.647C381.603 62.0755 381.486 61.7498 381.299 61.5103C380.947 61.076 380.348 60.8589 379.502 60.8589C378.806 60.8589 378.308 60.9674 378.009 61.1846C377.717 61.4017 377.571 61.6562 377.571 61.9482C377.571 62.3151 377.728 62.5809 378.042 62.7456C378.357 62.9178 379.469 63.2135 381.378 63.6328C382.651 63.9323 383.605 64.3853 384.242 64.9917C384.871 65.6056 385.185 66.373 385.185 67.2939C385.185 68.5068 384.732 69.4989 383.826 70.27C382.928 71.0337 381.535 71.4155 379.648 71.4155C377.724 71.4155 376.302 71.0112 375.381 70.2026C374.467 69.3866 374.011 68.3496 374.011 67.0918H377.256C377.324 67.6608 377.47 68.0651 377.694 68.3047C378.091 68.7314 378.825 68.9448 379.896 68.9448C380.524 68.9448 381.022 68.8512 381.389 68.6641C381.764 68.4769 381.951 68.1961 381.951 67.8218C381.951 67.4624 381.801 67.1891 381.501 67.002C381.202 66.8148 380.09 66.4928 378.166 66.0361C376.781 65.6917 375.804 65.2612 375.235 64.7446C374.666 64.2355 374.381 63.5018 374.381 62.5435C374.381 61.4129 374.823 60.4434 375.707 59.6348C376.597 58.8187 377.848 58.4106 379.458 58.4106C380.985 58.4106 382.231 58.7139 383.197 59.3203ZM388.026 60.084C388.872 59.0059 390.325 58.4668 392.384 58.4668C393.724 58.4668 394.914 58.7326 395.955 59.2642C396.996 59.7957 397.516 60.799 397.516 62.2739V67.8892C397.516 68.2785 397.524 68.7502 397.539 69.3042C397.561 69.7235 397.625 70.008 397.729 70.1577C397.834 70.3075 397.992 70.431 398.201 70.5283V71H394.72C394.622 70.7529 394.555 70.5208 394.518 70.3037C394.48 70.0866 394.45 69.8395 394.428 69.5625C393.986 70.0417 393.477 70.4497 392.9 70.7866C392.212 71.1834 391.433 71.3818 390.564 71.3818C389.456 71.3818 388.539 71.0674 387.813 70.4385C387.094 69.8021 386.735 68.9036 386.735 67.7432C386.735 66.2383 387.315 65.1489 388.476 64.4751C389.112 64.1082 390.048 63.8462 391.283 63.689L392.373 63.5542C392.964 63.4793 393.387 63.3857 393.642 63.2734C394.098 63.0788 394.327 62.7756 394.327 62.3638C394.327 61.8621 394.151 61.5177 393.799 61.3306C393.454 61.1359 392.945 61.0386 392.271 61.0386C391.515 61.0386 390.98 61.2257 390.666 61.6001C390.441 61.8771 390.291 62.2515 390.216 62.7231H387.128C387.195 61.6525 387.495 60.7728 388.026 60.084ZM390.407 68.6865C390.707 68.9336 391.074 69.0571 391.508 69.0571C392.197 69.0571 392.829 68.855 393.406 68.4507C393.99 68.0464 394.293 67.3089 394.315 66.2383V65.0479C394.113 65.1751 393.907 65.2799 393.698 65.3623C393.496 65.4372 393.215 65.5083 392.855 65.5757L392.137 65.7104C391.463 65.8302 390.98 65.9762 390.688 66.1484C390.194 66.4404 389.947 66.8934 389.947 67.5073C389.947 68.0539 390.1 68.4469 390.407 68.6865ZM403.828 73.145C404.172 73.437 404.752 73.583 405.568 73.583C406.721 73.583 407.493 73.1974 407.882 72.4263C408.136 71.9321 408.264 71.1011 408.264 69.9331V69.147C407.957 69.6711 407.627 70.0641 407.275 70.3262C406.639 70.8128 405.812 71.0562 404.793 71.0562C403.221 71.0562 401.963 70.5059 401.02 69.4053C400.084 68.2972 399.616 66.7998 399.616 64.9131C399.616 63.0938 400.069 61.5664 400.975 60.3311C401.881 59.0882 403.165 58.4668 404.827 58.4668C405.441 58.4668 405.976 58.5604 406.433 58.7476C407.212 59.0695 407.841 59.661 408.32 60.522V58.7588H411.431V70.3711C411.431 71.9508 411.165 73.1413 410.633 73.9424C409.72 75.32 407.968 76.0088 405.377 76.0088C403.813 76.0088 402.536 75.7018 401.548 75.0879C400.56 74.474 400.013 73.5568 399.908 72.3364H403.39C403.479 72.7108 403.625 72.9803 403.828 73.145ZM403.289 66.8223C403.723 67.8555 404.501 68.3721 405.625 68.3721C406.373 68.3721 407.006 68.0913 407.522 67.5298C408.039 66.9608 408.297 66.0586 408.297 64.8232C408.297 63.6628 408.05 62.7793 407.556 62.1729C407.069 61.5664 406.414 61.2632 405.591 61.2632C404.468 61.2632 403.693 61.791 403.266 62.8467C403.042 63.4082 402.929 64.1007 402.929 64.9243C402.929 65.6356 403.049 66.2682 403.289 66.8223ZM417.888 73.145C418.233 73.437 418.813 73.583 419.629 73.583C420.782 73.583 421.553 73.1974 421.942 72.4263C422.197 71.9321 422.324 71.1011 422.324 69.9331V69.147C422.017 69.6711 421.688 70.0641 421.336 70.3262C420.7 70.8128 419.872 71.0562 418.854 71.0562C417.282 71.0562 416.024 70.5059 415.081 69.4053C414.145 68.2972 413.677 66.7998 413.677 64.9131C413.677 63.0938 414.13 61.5664 415.036 60.3311C415.942 59.0882 417.226 58.4668 418.888 58.4668C419.502 58.4668 420.037 58.5604 420.494 58.7476C421.272 59.0695 421.901 59.661 422.38 60.522V58.7588H425.491V70.3711C425.491 71.9508 425.225 73.1413 424.694 73.9424C423.78 75.32 422.028 76.0088 419.438 76.0088C417.873 76.0088 416.597 75.7018 415.608 75.0879C414.62 74.474 414.074 73.5568 413.969 72.3364H417.45C417.54 72.7108 417.686 72.9803 417.888 73.145ZM417.349 66.8223C417.783 67.8555 418.562 68.3721 419.685 68.3721C420.434 68.3721 421.066 68.0913 421.583 67.5298C422.1 66.9608 422.358 66.0586 422.358 64.8232C422.358 63.6628 422.111 62.7793 421.617 62.1729C421.13 61.5664 420.475 61.2632 419.651 61.2632C418.528 61.2632 417.753 61.791 417.327 62.8467C417.102 63.4082 416.99 64.1007 416.99 64.9243C416.99 65.6356 417.11 66.2682 417.349 66.8223ZM431.78 58.7588V71H428.535V58.7588H431.78ZM431.78 54.3452V57.2988H428.535V54.3452H431.78ZM445.1 60.3086C446.133 61.6038 446.649 63.1349 446.649 64.9019C446.649 66.6987 446.133 68.2373 445.1 69.5176C444.066 70.7904 442.498 71.4268 440.394 71.4268C438.29 71.4268 436.722 70.7904 435.688 69.5176C434.655 68.2373 434.139 66.6987 434.139 64.9019C434.139 63.1349 434.655 61.6038 435.688 60.3086C436.722 59.0133 438.29 58.3657 440.394 58.3657C442.498 58.3657 444.066 59.0133 445.1 60.3086ZM440.383 61.0723C439.447 61.0723 438.724 61.4054 438.215 62.0718C437.714 62.7306 437.463 63.674 437.463 64.9019C437.463 66.1297 437.714 67.0768 438.215 67.7432C438.724 68.4095 439.447 68.7427 440.383 68.7427C441.319 68.7427 442.037 68.4095 442.539 67.7432C443.041 67.0768 443.292 66.1297 443.292 64.9019C443.292 63.674 443.041 62.7306 442.539 62.0718C442.037 61.4054 441.319 61.0723 440.383 61.0723ZM453.5 58.7026L452.59 66.4292H450.917L449.985 58.7026V54.5024H453.5V58.7026ZM453.41 67.7544V71H450.063V67.7544H453.41Z" fill="black"/>
<path d="M198.422 106.061C199.471 106.061 200.298 105.851 200.904 105.432C201.518 105.012 201.825 104.256 201.825 103.163C201.825 101.988 201.398 101.187 200.545 100.76C200.088 100.535 199.478 100.423 198.714 100.423H193.256V106.061H198.422ZM191.021 98.5024H198.658C199.916 98.5024 200.953 98.6859 201.769 99.0527C203.319 99.7565 204.094 101.056 204.094 102.95C204.094 103.938 203.888 104.747 203.476 105.375C203.072 106.004 202.503 106.51 201.769 106.892C202.413 107.154 202.896 107.498 203.218 107.925C203.547 108.352 203.731 109.044 203.768 110.002L203.847 112.215C203.869 112.844 203.922 113.312 204.004 113.619C204.139 114.143 204.378 114.48 204.723 114.629V115H201.982C201.908 114.858 201.848 114.674 201.803 114.45C201.758 114.225 201.72 113.791 201.69 113.147L201.556 110.396C201.503 109.317 201.103 108.595 200.354 108.228C199.927 108.026 199.257 107.925 198.344 107.925H193.256V115H191.021V98.5024ZM207.104 103.028H209.159V115H207.104V103.028ZM207.104 98.5024H209.159V100.793H207.104V98.5024ZM213.426 111.227C213.486 111.9 213.655 112.417 213.932 112.776C214.441 113.428 215.324 113.753 216.582 113.753C217.331 113.753 217.99 113.592 218.559 113.271C219.128 112.941 219.412 112.436 219.412 111.754C219.412 111.238 219.184 110.845 218.727 110.575C218.435 110.41 217.859 110.22 216.998 110.002L215.392 109.598C214.366 109.344 213.61 109.059 213.123 108.745C212.255 108.198 211.82 107.442 211.82 106.476C211.82 105.338 212.228 104.417 213.044 103.713C213.868 103.01 214.972 102.658 216.357 102.658C218.169 102.658 219.476 103.189 220.277 104.252C220.778 104.926 221.022 105.653 221.007 106.431H219.098C219.06 105.974 218.899 105.559 218.615 105.185C218.151 104.653 217.346 104.387 216.2 104.387C215.437 104.387 214.856 104.533 214.459 104.825C214.07 105.117 213.875 105.503 213.875 105.982C213.875 106.506 214.134 106.925 214.65 107.24C214.95 107.427 215.392 107.592 215.976 107.734L217.312 108.06C218.764 108.411 219.738 108.752 220.232 109.082C221.018 109.598 221.411 110.41 221.411 111.519C221.411 112.589 221.003 113.514 220.187 114.292C219.378 115.071 218.143 115.46 216.481 115.46C214.692 115.46 213.423 115.056 212.674 114.248C211.933 113.431 211.536 112.424 211.483 111.227H213.426ZM228.801 113.641C229.744 113.641 230.527 113.248 231.148 112.462C231.777 111.668 232.091 110.485 232.091 108.913C232.091 107.955 231.953 107.131 231.676 106.442C231.152 105.117 230.193 104.455 228.801 104.455C227.401 104.455 226.442 105.155 225.926 106.555C225.649 107.303 225.51 108.254 225.51 109.407C225.51 110.336 225.649 111.125 225.926 111.777C226.45 113.02 227.408 113.641 228.801 113.641ZM223.567 103.028H225.533V104.623C225.937 104.076 226.379 103.653 226.858 103.354C227.539 102.905 228.34 102.68 229.261 102.68C230.624 102.68 231.781 103.204 232.731 104.252C233.682 105.293 234.158 106.783 234.158 108.722C234.158 111.343 233.473 113.214 232.103 114.337C231.234 115.049 230.223 115.404 229.07 115.404C228.164 115.404 227.404 115.206 226.791 114.809C226.431 114.584 226.031 114.199 225.589 113.652V119.795H223.567V103.028ZM241.3 113.697C242.64 113.697 243.558 113.192 244.052 112.181C244.553 111.163 244.804 110.032 244.804 108.79C244.804 107.667 244.625 106.753 244.265 106.049C243.696 104.941 242.715 104.387 241.323 104.387C240.087 104.387 239.189 104.859 238.627 105.802C238.066 106.746 237.785 107.884 237.785 109.216C237.785 110.497 238.066 111.563 238.627 112.417C239.189 113.271 240.08 113.697 241.3 113.697ZM241.379 102.624C242.929 102.624 244.239 103.141 245.31 104.174C246.38 105.207 246.916 106.727 246.916 108.733C246.916 110.673 246.444 112.275 245.5 113.54C244.557 114.805 243.093 115.438 241.109 115.438C239.455 115.438 238.141 114.88 237.167 113.765C236.194 112.642 235.708 111.137 235.708 109.25C235.708 107.229 236.22 105.619 237.246 104.421C238.272 103.223 239.649 102.624 241.379 102.624ZM249.33 102.972H251.25V104.679C251.819 103.975 252.422 103.47 253.059 103.163C253.695 102.856 254.403 102.703 255.181 102.703C256.888 102.703 258.041 103.298 258.64 104.488C258.97 105.14 259.134 106.072 259.134 107.285V115H257.079V107.419C257.079 106.686 256.971 106.094 256.753 105.645C256.394 104.896 255.743 104.522 254.799 104.522C254.32 104.522 253.927 104.571 253.62 104.668C253.066 104.833 252.579 105.162 252.16 105.656C251.823 106.053 251.602 106.465 251.498 106.892C251.4 107.311 251.352 107.914 251.352 108.7V115H249.33V102.972ZM263.413 109.126C263.413 110.414 263.686 111.492 264.233 112.361C264.779 113.229 265.655 113.664 266.861 113.664C267.797 113.664 268.564 113.263 269.163 112.462C269.77 111.653 270.073 110.497 270.073 108.992C270.073 107.472 269.762 106.349 269.141 105.623C268.519 104.889 267.752 104.522 266.838 104.522C265.82 104.522 264.993 104.911 264.356 105.69C263.728 106.469 263.413 107.614 263.413 109.126ZM266.457 102.759C267.377 102.759 268.149 102.953 268.77 103.343C269.129 103.567 269.537 103.96 269.994 104.522V98.4463H271.937V115H270.118V113.327C269.646 114.068 269.088 114.603 268.444 114.933C267.8 115.262 267.063 115.427 266.232 115.427C264.892 115.427 263.731 114.865 262.75 113.742C261.77 112.612 261.279 111.111 261.279 109.239C261.279 107.487 261.725 105.971 262.616 104.69C263.514 103.403 264.794 102.759 266.457 102.759ZM279.944 102.703C280.798 102.703 281.625 102.905 282.426 103.309C283.227 103.706 283.838 104.222 284.257 104.859C284.661 105.465 284.931 106.173 285.065 106.981C285.185 107.535 285.245 108.419 285.245 109.632H276.429C276.467 110.852 276.755 111.833 277.294 112.574C277.833 113.308 278.668 113.675 279.798 113.675C280.854 113.675 281.696 113.327 282.325 112.63C282.685 112.226 282.939 111.758 283.089 111.227H285.077C285.024 111.668 284.848 112.162 284.549 112.709C284.257 113.248 283.927 113.69 283.561 114.034C282.947 114.633 282.187 115.037 281.281 115.247C280.794 115.367 280.244 115.427 279.63 115.427C278.132 115.427 276.863 114.884 275.823 113.798C274.782 112.705 274.262 111.178 274.262 109.216C274.262 107.285 274.786 105.716 275.834 104.511C276.882 103.305 278.252 102.703 279.944 102.703ZM283.167 108.026C283.085 107.15 282.894 106.45 282.595 105.926C282.041 104.952 281.116 104.466 279.821 104.466C278.892 104.466 278.114 104.803 277.485 105.477C276.856 106.143 276.523 106.993 276.485 108.026H283.167ZM287.794 102.972H289.715V105.05C289.872 104.646 290.258 104.155 290.872 103.579C291.486 102.995 292.193 102.703 292.994 102.703C293.032 102.703 293.095 102.706 293.185 102.714C293.275 102.721 293.428 102.736 293.646 102.759V104.893C293.526 104.87 293.413 104.855 293.309 104.848C293.211 104.84 293.103 104.836 292.983 104.836C291.965 104.836 291.182 105.166 290.636 105.825C290.089 106.476 289.816 107.229 289.816 108.082V115H287.794V102.972ZM300.406 102.703C301.26 102.703 302.087 102.905 302.888 103.309C303.689 103.706 304.299 104.222 304.719 104.859C305.123 105.465 305.393 106.173 305.527 106.981C305.647 107.535 305.707 108.419 305.707 109.632H296.891C296.929 110.852 297.217 111.833 297.756 112.574C298.295 113.308 299.13 113.675 300.26 113.675C301.316 113.675 302.158 113.327 302.787 112.63C303.146 112.226 303.401 111.758 303.551 111.227H305.539C305.486 111.668 305.31 112.162 305.011 112.709C304.719 113.248 304.389 113.69 304.022 114.034C303.409 114.633 302.649 115.037 301.743 115.247C301.256 115.367 300.706 115.427 300.092 115.427C298.594 115.427 297.325 114.884 296.285 113.798C295.244 112.705 294.724 111.178 294.724 109.216C294.724 107.285 295.248 105.716 296.296 104.511C297.344 103.305 298.714 102.703 300.406 102.703ZM303.629 108.026C303.547 107.15 303.356 106.45 303.057 105.926C302.503 104.952 301.578 104.466 300.283 104.466C299.354 104.466 298.576 104.803 297.947 105.477C297.318 106.143 296.985 106.993 296.947 108.026H303.629ZM308.2 102.972H310.199V104.679C310.678 104.088 311.113 103.657 311.502 103.388C312.168 102.931 312.924 102.703 313.771 102.703C314.729 102.703 315.5 102.938 316.084 103.41C316.413 103.68 316.713 104.076 316.982 104.601C317.432 103.957 317.959 103.481 318.566 103.174C319.172 102.86 319.854 102.703 320.61 102.703C322.227 102.703 323.328 103.287 323.912 104.455C324.226 105.083 324.383 105.93 324.383 106.993V115H322.283V106.645C322.283 105.843 322.081 105.293 321.677 104.994C321.28 104.694 320.793 104.544 320.217 104.544C319.423 104.544 318.738 104.81 318.162 105.342C317.593 105.873 317.308 106.761 317.308 108.003V115H315.253V107.15C315.253 106.334 315.156 105.739 314.961 105.364C314.654 104.803 314.081 104.522 313.243 104.522C312.479 104.522 311.783 104.818 311.154 105.409C310.532 106.001 310.222 107.071 310.222 108.621V115H308.2V102.972ZM332.132 113.697C333.472 113.697 334.39 113.192 334.884 112.181C335.385 111.163 335.636 110.032 335.636 108.79C335.636 107.667 335.457 106.753 335.097 106.049C334.528 104.941 333.547 104.387 332.155 104.387C330.919 104.387 330.021 104.859 329.459 105.802C328.898 106.746 328.617 107.884 328.617 109.216C328.617 110.497 328.898 111.563 329.459 112.417C330.021 113.271 330.912 113.697 332.132 113.697ZM332.211 102.624C333.761 102.624 335.071 103.141 336.142 104.174C337.212 105.207 337.748 106.727 337.748 108.733C337.748 110.673 337.276 112.275 336.333 113.54C335.389 114.805 333.925 115.438 331.941 115.438C330.287 115.438 328.973 114.88 328 113.765C327.026 112.642 326.54 111.137 326.54 109.25C326.54 107.229 327.052 105.619 328.078 104.421C329.104 103.223 330.481 102.624 332.211 102.624ZM346.563 103.028H348.619V115H346.563V103.028ZM346.563 98.5024H348.619V100.793H346.563V98.5024ZM351.741 98.5024H353.762V115H351.741V98.5024ZM368.283 113.641C369.227 113.641 370.009 113.248 370.63 112.462C371.259 111.668 371.574 110.485 371.574 108.913C371.574 107.955 371.435 107.131 371.158 106.442C370.634 105.117 369.676 104.455 368.283 104.455C366.883 104.455 365.925 105.155 365.408 106.555C365.131 107.303 364.993 108.254 364.993 109.407C364.993 110.336 365.131 111.125 365.408 111.777C365.932 113.02 366.891 113.641 368.283 113.641ZM363.05 103.028H365.015V104.623C365.419 104.076 365.861 103.653 366.34 103.354C367.022 102.905 367.823 102.68 368.744 102.68C370.106 102.68 371.263 103.204 372.214 104.252C373.165 105.293 373.64 106.783 373.64 108.722C373.64 111.343 372.955 113.214 371.585 114.337C370.716 115.049 369.706 115.404 368.553 115.404C367.647 115.404 366.887 115.206 366.273 114.809C365.914 114.584 365.513 114.199 365.071 113.652V119.795H363.05V103.028ZM376.066 102.972H377.986V105.05C378.144 104.646 378.529 104.155 379.143 103.579C379.757 102.995 380.465 102.703 381.266 102.703C381.303 102.703 381.367 102.706 381.457 102.714C381.546 102.721 381.7 102.736 381.917 102.759V104.893C381.797 104.87 381.685 104.855 381.58 104.848C381.483 104.84 381.374 104.836 381.254 104.836C380.236 104.836 379.454 105.166 378.907 105.825C378.361 106.476 378.087 107.229 378.087 108.082V115H376.066V102.972ZM383.669 103.028H385.724V115H383.669V103.028ZM383.669 98.5024H385.724V100.793H383.669V98.5024ZM388.79 102.972H390.789V104.679C391.268 104.088 391.702 103.657 392.092 103.388C392.758 102.931 393.514 102.703 394.36 102.703C395.319 102.703 396.09 102.938 396.674 103.41C397.003 103.68 397.303 104.076 397.572 104.601C398.021 103.957 398.549 103.481 399.156 103.174C399.762 102.86 400.444 102.703 401.2 102.703C402.817 102.703 403.917 103.287 404.501 104.455C404.816 105.083 404.973 105.93 404.973 106.993V115H402.873V106.645C402.873 105.843 402.671 105.293 402.267 104.994C401.87 104.694 401.383 104.544 400.807 104.544C400.013 104.544 399.328 104.81 398.751 105.342C398.182 105.873 397.898 106.761 397.898 108.003V115H395.843V107.15C395.843 106.334 395.745 105.739 395.551 105.364C395.244 104.803 394.671 104.522 393.833 104.522C393.069 104.522 392.373 104.818 391.744 105.409C391.122 106.001 390.812 107.071 390.812 108.621V115H388.79V102.972ZM409.499 111.799C409.499 112.383 409.712 112.844 410.139 113.181C410.566 113.518 411.071 113.686 411.655 113.686C412.367 113.686 413.055 113.521 413.722 113.192C414.845 112.645 415.406 111.751 415.406 110.508V108.879C415.159 109.037 414.841 109.168 414.452 109.272C414.062 109.377 413.681 109.452 413.306 109.497L412.082 109.654C411.348 109.752 410.798 109.905 410.431 110.115C409.81 110.467 409.499 111.028 409.499 111.799ZM414.396 107.711C414.86 107.652 415.17 107.457 415.328 107.127C415.417 106.948 415.462 106.689 415.462 106.353C415.462 105.664 415.215 105.166 414.721 104.859C414.235 104.544 413.535 104.387 412.621 104.387C411.565 104.387 410.817 104.672 410.375 105.241C410.128 105.555 409.967 106.023 409.892 106.645H408.005C408.043 105.162 408.522 104.133 409.443 103.556C410.371 102.972 411.446 102.68 412.666 102.68C414.081 102.68 415.23 102.95 416.114 103.489C416.99 104.028 417.428 104.866 417.428 106.004V112.934C417.428 113.143 417.469 113.312 417.551 113.439C417.641 113.566 417.825 113.63 418.102 113.63C418.191 113.63 418.292 113.626 418.405 113.619C418.517 113.604 418.637 113.585 418.764 113.562V115.056C418.45 115.146 418.21 115.202 418.045 115.225C417.881 115.247 417.656 115.258 417.372 115.258C416.675 115.258 416.17 115.011 415.855 114.517C415.691 114.255 415.575 113.884 415.507 113.405C415.096 113.944 414.504 114.412 413.733 114.809C412.962 115.206 412.112 115.404 411.184 115.404C410.068 115.404 409.155 115.067 408.443 114.394C407.74 113.712 407.388 112.862 407.388 111.844C407.388 110.729 407.736 109.864 408.432 109.25C409.128 108.636 410.042 108.258 411.172 108.116L414.396 107.711ZM195.559 139.641C196.502 139.641 197.284 139.248 197.906 138.462C198.535 137.668 198.849 136.485 198.849 134.913C198.849 133.955 198.711 133.131 198.434 132.442C197.91 131.117 196.951 130.455 195.559 130.455C194.159 130.455 193.2 131.155 192.684 132.555C192.407 133.303 192.268 134.254 192.268 135.407C192.268 136.336 192.407 137.125 192.684 137.777C193.208 139.02 194.166 139.641 195.559 139.641ZM190.325 129.028H192.291V130.623C192.695 130.076 193.137 129.653 193.616 129.354C194.297 128.905 195.098 128.68 196.019 128.68C197.382 128.68 198.538 129.204 199.489 130.252C200.44 131.293 200.916 132.783 200.916 134.722C200.916 137.343 200.23 139.214 198.86 140.337C197.992 141.049 196.981 141.404 195.828 141.404C194.922 141.404 194.162 141.206 193.548 140.809C193.189 140.584 192.788 140.199 192.347 139.652V145.795H190.325V129.028ZM208.058 139.697C209.398 139.697 210.315 139.192 210.81 138.181C211.311 137.163 211.562 136.032 211.562 134.79C211.562 133.667 211.382 132.753 211.023 132.049C210.454 130.941 209.473 130.387 208.081 130.387C206.845 130.387 205.947 130.859 205.385 131.802C204.824 132.746 204.543 133.884 204.543 135.216C204.543 136.497 204.824 137.563 205.385 138.417C205.947 139.271 206.838 139.697 208.058 139.697ZM208.137 128.624C209.687 128.624 210.997 129.141 212.067 130.174C213.138 131.207 213.673 132.727 213.673 134.733C213.673 136.673 213.202 138.275 212.258 139.54C211.315 140.805 209.851 141.438 207.867 141.438C206.213 141.438 204.899 140.88 203.925 139.765C202.952 138.642 202.465 137.137 202.465 135.25C202.465 133.229 202.978 131.619 204.004 130.421C205.03 129.223 206.407 128.624 208.137 128.624ZM217.29 137.227C217.349 137.9 217.518 138.417 217.795 138.776C218.304 139.428 219.188 139.753 220.445 139.753C221.194 139.753 221.853 139.592 222.422 139.271C222.991 138.941 223.275 138.436 223.275 137.754C223.275 137.238 223.047 136.845 222.59 136.575C222.298 136.41 221.722 136.22 220.861 136.002L219.255 135.598C218.229 135.344 217.473 135.059 216.986 134.745C216.118 134.198 215.684 133.442 215.684 132.476C215.684 131.338 216.092 130.417 216.908 129.713C217.731 129.01 218.836 128.658 220.221 128.658C222.033 128.658 223.339 129.189 224.14 130.252C224.642 130.926 224.885 131.653 224.87 132.431H222.961C222.924 131.974 222.763 131.559 222.478 131.185C222.014 130.653 221.209 130.387 220.063 130.387C219.3 130.387 218.72 130.533 218.323 130.825C217.933 131.117 217.739 131.503 217.739 131.982C217.739 132.506 217.997 132.925 218.514 133.24C218.813 133.427 219.255 133.592 219.839 133.734L221.175 134.06C222.628 134.411 223.601 134.752 224.095 135.082C224.881 135.598 225.274 136.41 225.274 137.519C225.274 138.589 224.866 139.514 224.05 140.292C223.242 141.071 222.006 141.46 220.344 141.46C218.555 141.46 217.286 141.056 216.537 140.248C215.796 139.431 215.399 138.424 215.347 137.227H217.29ZM228.79 137.227C228.849 137.9 229.018 138.417 229.295 138.776C229.804 139.428 230.688 139.753 231.945 139.753C232.694 139.753 233.353 139.592 233.922 139.271C234.491 138.941 234.775 138.436 234.775 137.754C234.775 137.238 234.547 136.845 234.09 136.575C233.798 136.41 233.222 136.22 232.361 136.002L230.755 135.598C229.729 135.344 228.973 135.059 228.486 134.745C227.618 134.198 227.184 133.442 227.184 132.476C227.184 131.338 227.592 130.417 228.408 129.713C229.231 129.01 230.336 128.658 231.721 128.658C233.533 128.658 234.839 129.189 235.64 130.252C236.142 130.926 236.385 131.653 236.37 132.431H234.461C234.424 131.974 234.263 131.559 233.978 131.185C233.514 130.653 232.709 130.387 231.563 130.387C230.8 130.387 230.22 130.533 229.823 130.825C229.433 131.117 229.239 131.503 229.239 131.982C229.239 132.506 229.497 132.925 230.014 133.24C230.313 133.427 230.755 133.592 231.339 133.734L232.675 134.06C234.128 134.411 235.101 134.752 235.595 135.082C236.381 135.598 236.774 136.41 236.774 137.519C236.774 138.589 236.366 139.514 235.55 140.292C234.742 141.071 233.506 141.46 231.844 141.46C230.055 141.46 228.786 141.056 228.037 140.248C227.296 139.431 226.899 138.424 226.847 137.227H228.79ZM239.088 129.028H241.143V141H239.088V129.028ZM239.088 124.502H241.143V126.793H239.088V124.502ZM244.052 124.446H246.017V130.432C246.459 129.856 246.987 129.418 247.601 129.118C248.215 128.811 248.881 128.658 249.6 128.658C251.097 128.658 252.31 129.174 253.238 130.208C254.174 131.233 254.642 132.749 254.642 134.756C254.642 136.658 254.182 138.237 253.261 139.495C252.34 140.753 251.063 141.382 249.431 141.382C248.518 141.382 247.747 141.161 247.118 140.719C246.743 140.457 246.343 140.038 245.916 139.461V141H244.052V124.446ZM249.308 139.596C250.401 139.596 251.217 139.162 251.756 138.293C252.302 137.425 252.576 136.279 252.576 134.857C252.576 133.592 252.302 132.543 251.756 131.712C251.217 130.881 250.419 130.466 249.364 130.466C248.443 130.466 247.634 130.806 246.938 131.488C246.249 132.169 245.905 133.292 245.905 134.857C245.905 135.987 246.047 136.905 246.332 137.608C246.863 138.934 247.855 139.596 249.308 139.596ZM257.012 129.028H259.067V141H257.012V129.028ZM257.012 124.502H259.067V126.793H257.012V124.502ZM262.189 124.502H264.21V141H262.189V124.502ZM272.263 128.703C273.116 128.703 273.944 128.905 274.745 129.309C275.546 129.706 276.156 130.222 276.575 130.859C276.979 131.465 277.249 132.173 277.384 132.981C277.504 133.535 277.563 134.419 277.563 135.632H268.748C268.785 136.852 269.073 137.833 269.612 138.574C270.151 139.308 270.986 139.675 272.117 139.675C273.172 139.675 274.015 139.327 274.644 138.63C275.003 138.226 275.257 137.758 275.407 137.227H277.395C277.343 137.668 277.167 138.162 276.867 138.709C276.575 139.248 276.246 139.69 275.879 140.034C275.265 140.633 274.505 141.037 273.599 141.247C273.112 141.367 272.562 141.427 271.948 141.427C270.451 141.427 269.182 140.884 268.141 139.798C267.1 138.705 266.58 137.178 266.58 135.216C266.58 133.285 267.104 131.716 268.152 130.511C269.201 129.305 270.571 128.703 272.263 128.703ZM275.486 134.026C275.403 133.15 275.213 132.45 274.913 131.926C274.359 130.952 273.434 130.466 272.139 130.466C271.211 130.466 270.432 130.803 269.803 131.477C269.174 132.143 268.841 132.993 268.804 134.026H275.486ZM280.54 138.552H282.887V141H280.54V138.552ZM286.941 138.552H289.288V141H286.941V138.552ZM293.342 138.552H295.689V141H293.342V138.552Z" fill="black"/>
<path d="M58.6306 107.441V110.584H73.2787V107.441L68.9239 106.262V75.4136L78.0294 110.584H81.5925C80.6401 130.088 82.946 136.912 95.4488 136.913C100.89 136.902 103.06 135.644 104.95 130.625L105.346 136.52H109.701V118.051H96.6365V122.373H104.554C104.047 130.48 101.888 132.494 95.4488 132.59C89.1145 132.556 87.2106 129.287 87.135 116.872C87.2416 102.993 89.8107 101.276 95.4488 100.76V106.262L91.094 107.441V110.584H109.701V96.8306H105.346L104.158 101.939C103.376 99.3888 102.577 98.3778 100.595 97.2236V75.6106L105.742 74.4317V70.895H91.094L81.9884 105.869L73.2787 70.895H58.6306V74.0387L63.7772 75.4136V106.262L58.6306 107.441Z" fill="#121212"/>
<path d="M95.0529 96.4376V75.6106L89.5104 97.2236C91.6775 96.5645 92.891 96.3508 95.0529 96.4376Z" fill="#FAFAFA"/>
<path d="M100.595 106.262V101.939C102.982 103.199 103.544 104.402 103.763 107.048L100.595 106.262Z" fill="#FAFAFA"/>
<path d="M58.6306 110.584H58.1306V111.084H58.6306V110.584ZM58.6306 107.441L58.519 106.953L58.1306 107.042V107.441H58.6306ZM63.7772 106.262L63.8889 106.749L64.2772 106.66V106.262H63.7772ZM63.7772 75.4136H64.2772V75.0297L63.9063 74.9306L63.7772 75.4136ZM58.6306 74.0387H58.1306V74.4227L58.5016 74.5218L58.6306 74.0387ZM58.6306 70.895V70.395H58.1306V70.895H58.6306ZM73.2787 70.895L73.7639 70.7742L73.6695 70.395H73.2787V70.895ZM81.9884 105.869L81.5032 105.99L82.4723 105.995L81.9884 105.869ZM91.094 70.895V70.395H90.7075L90.6101 70.769L91.094 70.895ZM105.742 70.895H106.242V70.395H105.742V70.895ZM105.742 74.4317L105.854 74.9191L106.242 74.8301V74.4317H105.742ZM100.595 75.6106L100.484 75.1232L100.095 75.2122V75.6106H100.595ZM100.595 97.2236H100.095V97.511L100.344 97.6556L100.595 97.2236ZM104.158 101.939L103.68 102.086L104.225 103.861L104.645 102.052L104.158 101.939ZM105.346 96.8306V96.3306H104.949L104.859 96.7174L105.346 96.8306ZM109.701 96.8306H110.201V96.3306H109.701V96.8306ZM109.701 110.584V111.084H110.201V110.584H109.701ZM91.094 110.584H90.594V111.084H91.094V110.584ZM91.094 107.441L90.9633 106.958L90.594 107.058V107.441H91.094ZM95.4488 106.262L95.5794 106.744L95.9488 106.644V106.262H95.4488ZM95.4488 100.76H95.9488V100.212L95.4032 100.262L95.4488 100.76ZM87.135 116.872L86.635 116.868L86.635 116.875L87.135 116.872ZM95.4488 132.59L95.4461 133.09L95.4563 133.09L95.4488 132.59ZM104.554 122.373L105.053 122.404L105.087 121.873H104.554V122.373ZM96.6365 122.373H96.1365V122.873H96.6365V122.373ZM96.6365 118.051V117.551H96.1365V118.051H96.6365ZM109.701 118.051H110.201V117.551H109.701V118.051ZM109.701 136.52V137.02H110.201V136.52H109.701ZM105.346 136.52L104.847 136.553L104.879 137.02H105.346V136.52ZM104.95 130.625L105.449 130.592L104.482 130.449L104.95 130.625ZM95.4488 136.913L95.4487 137.413H95.4498L95.4488 136.913ZM81.5925 110.584L82.0919 110.609L82.1175 110.084H81.5925V110.584ZM78.0294 110.584L77.5454 110.71L77.6424 111.084H78.0294V110.584ZM68.9239 75.4136L69.4079 75.2883L68.4239 75.4136H68.9239ZM68.9239 106.262H68.4239V106.644L68.7932 106.744L68.9239 106.262ZM73.2787 107.441H73.7787V107.058L73.4094 106.958L73.2787 107.441ZM73.2787 110.584V111.084H73.7787V110.584H73.2787ZM89.5104 97.2236L89.0255 97.1014L88.8231 97.9053L89.6286 97.7094L89.5104 97.2236ZM95.0529 75.2176H95.5529L94.568 75.0955L95.0529 75.2176ZM95.0529 96.4376L95.0547 96.9376L95.5529 96.9359V96.4376H95.0529ZM100.595 101.939L100.829 101.497L100.095 101.11V101.939H100.595ZM100.595 106.262H100.095V106.653L100.475 106.747L100.595 106.262ZM103.763 107.048L103.642 107.533L104.318 107.701L104.261 107.007L103.763 107.048ZM95.0529 75.6106H95.5529L94.5686 75.4864L95.0529 75.6106ZM59.1306 110.584V107.441H58.1306V110.584H59.1306ZM58.7423 107.928L63.8889 106.749L63.6656 105.774L58.519 106.953L58.7423 107.928ZM64.2772 106.262V75.4136H63.2772V106.262H64.2772ZM63.9063 74.9306L58.7597 73.5557L58.5016 74.5218L63.6482 75.8967L63.9063 74.9306ZM59.1306 74.0387V70.895H58.1306V74.0387H59.1306ZM58.6306 71.395H73.2787V70.395H58.6306V71.395ZM72.7935 71.0158L81.5032 105.99L82.4736 105.748L73.7639 70.7742L72.7935 71.0158ZM82.4723 105.995L91.5778 71.021L90.6101 70.769L81.5045 105.743L82.4723 105.995ZM91.094 71.395H105.742V70.395H91.094V71.395ZM105.242 70.895V74.4317H106.242V70.895H105.242ZM105.63 73.9443L100.484 75.1232L100.707 76.098L105.854 74.9191L105.63 73.9443ZM100.095 75.6106V97.2236H101.095V75.6106H100.095ZM100.344 97.6556C101.305 98.2155 101.939 98.7174 102.429 99.3608C102.922 100.008 103.297 100.834 103.68 102.086L104.636 101.792C104.238 100.494 103.822 99.5388 103.225 98.7549C102.624 97.9666 101.868 97.3859 100.847 96.7915L100.344 97.6556ZM104.645 102.052L105.833 96.9438L104.859 96.7174L103.671 101.826L104.645 102.052ZM105.346 97.3306H109.701V96.3306H105.346V97.3306ZM109.201 96.8306V110.584H110.201V96.8306H109.201ZM109.701 110.084H91.094V111.084H109.701V110.084ZM91.594 110.584V107.441H90.594V110.584H91.594ZM91.2246 107.923L95.5794 106.744L95.3181 105.779L90.9633 106.958L91.2246 107.923ZM95.9488 106.262V100.76H94.9488V106.262H95.9488ZM95.4032 100.262C92.5512 100.523 90.2821 101.102 88.7908 103.545C87.3501 105.905 86.6883 109.936 86.635 116.868L87.635 116.876C87.6884 109.929 88.3644 106.163 89.6444 104.066C90.8738 102.052 92.7083 101.513 95.4944 101.258L95.4032 100.262ZM86.635 116.875C86.6727 123.071 87.1607 127.113 88.5046 129.611C89.1893 130.883 90.0992 131.763 91.2747 132.318C92.4372 132.867 93.8255 133.081 95.4461 133.09L95.4515 132.09C93.9049 132.082 92.6799 131.875 91.7015 131.413C90.7362 130.958 89.9777 130.238 89.3852 129.137C88.1746 126.887 87.6728 123.087 87.635 116.869L86.635 116.875ZM95.4563 133.09C98.7012 133.042 101.038 132.514 102.594 130.824C104.13 129.156 104.799 126.465 105.053 122.404L104.055 122.342C103.802 126.388 103.138 128.757 101.859 130.147C100.599 131.515 98.6361 132.042 95.4413 132.09L95.4563 133.09ZM104.554 121.873H96.6365V122.873H104.554V121.873ZM97.1365 122.373V118.051H96.1365V122.373H97.1365ZM96.6365 118.551H109.701V117.551H96.6365V118.551ZM109.201 118.051V136.52H110.201V118.051H109.201ZM109.701 136.02H105.346V137.02H109.701V136.02ZM105.845 136.486L105.449 130.592L104.451 130.659L104.847 136.553L105.845 136.486ZM104.482 130.449C103.551 132.922 102.585 134.37 101.26 135.227C99.9266 136.089 98.1464 136.407 95.4478 136.413L95.4498 137.413C98.1923 137.407 100.218 137.091 101.803 136.067C103.396 135.037 104.459 133.347 105.418 130.802L104.482 130.449ZM95.4488 136.413C92.3622 136.413 89.9578 135.99 88.0923 135.091C86.2413 134.198 84.8889 132.821 83.9244 130.843C82.9529 128.85 82.3711 126.238 82.0959 122.885C81.8209 119.535 81.8542 115.477 82.0919 110.609L81.0931 110.56C80.8546 115.444 80.819 119.552 81.0992 122.967C81.3792 126.378 81.9767 129.13 83.0255 131.281C84.0812 133.447 85.5901 134.995 87.6581 135.992C89.7116 136.982 92.284 137.412 95.4487 137.413L95.4488 136.413ZM81.5925 110.084H78.0294V111.084H81.5925V110.084ZM78.5135 110.459L69.4079 75.2883L68.4398 75.5389L77.5454 110.71L78.5135 110.459ZM68.4239 75.4136V106.262H69.4239V75.4136H68.4239ZM68.7932 106.744L73.1481 107.923L73.4094 106.958L69.0545 105.779L68.7932 106.744ZM72.7787 107.441V110.584H73.7787V107.441H72.7787ZM73.2787 110.084H58.6306V111.084H73.2787V110.084ZM89.9952 97.3457L95.5378 75.3397L94.568 75.0955L89.0255 97.1014L89.9952 97.3457ZM94.5529 75.2176V96.4376H95.5529V75.2176H94.5529ZM95.0511 95.9376C92.9788 95.945 91.6993 96.1765 89.3922 96.7377L89.6286 97.7094C91.898 97.1573 93.0924 96.9446 95.0547 96.9376L95.0511 95.9376ZM100.095 101.939V106.262H101.095V101.939H100.095ZM100.475 106.747L103.642 107.533L103.883 106.562L100.716 105.776L100.475 106.747ZM104.26 107.001C104.122 105.51 103.813 104.464 103.239 103.614C102.669 102.772 101.871 102.172 100.868 101.52L100.323 102.358C101.311 103.001 101.961 103.509 102.41 104.174C102.854 104.831 103.134 105.692 103.265 107.094L104.26 107.001ZM94.5529 75.6106V96.4376H95.5529V75.6106H94.5529ZM95.073 95.938C92.8427 95.8485 91.5724 96.0739 89.3649 96.7452L89.6559 97.7019C91.7826 97.0552 92.9392 96.8532 95.0328 96.9372L95.073 95.938ZM89.9947 97.3478L95.5372 75.7348L94.5686 75.4864L89.0261 97.0993L89.9947 97.3478ZM104.261 107.007C104.15 105.666 103.949 104.61 103.423 103.72C102.891 102.819 102.064 102.149 100.829 101.497L100.362 102.381C101.514 102.989 102.161 103.551 102.562 104.228C102.968 104.916 103.157 105.784 103.264 107.089L104.261 107.007Z" fill="#121212"/>
</svg>
