<svg width="709" height="568" viewBox="0 0 709 568" fill="none" xmlns="http://www.w3.org/2000/svg">
<path opacity="0.45" d="M166.413 504.962C225.373 504.962 273.17 495.902 273.17 484.727C273.17 473.552 225.373 464.492 166.413 464.492C107.453 464.492 59.6564 473.552 59.6564 484.727C59.6564 495.902 107.453 504.962 166.413 504.962Z" fill="#E6E6E6"/>
<path d="M560.258 145.145H176.628C173.866 145.145 171.628 147.384 171.628 150.145V399.014C171.628 401.776 173.866 404.014 176.628 404.014H560.258C563.02 404.014 565.258 401.776 565.258 399.014V150.145C565.258 147.384 563.02 145.145 560.258 145.145Z" fill="#E6E6E6"/>
<path d="M190.66 168.771C194.215 168.771 197.098 165.887 197.098 162.328C197.098 158.769 194.215 155.884 190.66 155.884C187.104 155.884 184.221 158.769 184.221 162.328C184.221 165.887 187.104 168.771 190.66 168.771Z" fill="#FF605C"/>
<path d="M209.786 168.771C213.342 168.771 216.224 165.887 216.224 162.328C216.224 158.769 213.342 155.884 209.786 155.884C206.23 155.884 203.348 158.769 203.348 162.328C203.348 165.887 206.23 168.771 209.786 168.771Z" fill="#FFBD44"/>
<path d="M227.82 168.771C231.376 168.771 234.258 165.887 234.258 162.328C234.258 158.769 231.376 155.884 227.82 155.884C224.264 155.884 221.382 158.769 221.382 162.328C221.382 165.887 224.264 168.771 227.82 168.771Z" fill="#00CA4E"/>
<path opacity="0.08" d="M501.46 145.145L408.747 145.522L393.913 166.416L254.138 294.89L265.621 317.216L226.371 332.703H188.118L183.054 404.014H227.783L234.108 362.377C271.551 357.384 296.23 323.038 296.23 323.038L459.33 253.233L438.623 205.492L466.164 192.303L467.688 200.951C467.688 200.951 482.579 196.844 481.958 182.958C481.336 169.073 480.038 151.834 501.46 145.145Z" fill="black"/>
<path d="M424.955 92.5238C422.678 110.78 413.265 148.499 374.617 165.305L380.265 174.725C380.265 174.725 434.048 157.769 447.018 114.435C452.835 94.9354 449.127 86.476 443.253 83.047C441.47 82.0612 439.47 81.5311 437.433 81.5036C435.395 81.4761 433.383 81.9521 431.573 82.8893C429.763 83.8266 428.212 85.1962 427.058 86.8768C425.904 88.5574 425.182 90.497 424.955 92.5238Z" fill="#68E1FD"/>
<path opacity="0.2" d="M424.955 92.5238C422.678 110.78 413.265 148.499 374.617 165.305L380.265 174.725C380.265 174.725 434.048 157.769 447.018 114.435C452.835 94.9354 449.127 86.476 443.253 83.047C441.47 82.0612 439.47 81.5311 437.433 81.5036C435.395 81.4761 433.383 81.9521 431.573 82.8893C429.763 83.8266 428.212 85.1962 427.058 86.8768C425.904 88.5574 425.182 90.497 424.955 92.5238Z" fill="white"/>
<path d="M429.888 63.6601L439.131 74.9456L447.263 66.2036L432.674 53.2413L429.888 63.6601Z" fill="#F4A28C"/>
<path d="M423.374 42.9355C421.956 42.715 420.505 42.8531 419.154 43.3373C417.803 43.8214 416.594 44.6361 415.638 45.7073C414.682 46.7785 414.009 48.0721 413.68 49.4702C413.351 50.8684 413.377 52.3267 413.755 53.7123C415.468 60.3065 419.157 69.2934 426.198 66.2036C436.947 61.4934 431.3 47.363 431.3 47.363C429.15 45.1394 426.394 43.5993 423.374 42.9355Z" fill="#F4A28C"/>
<path d="M437.662 131.279L419.327 140.699C417.757 141.517 416.367 142.642 415.241 144.009C414.115 145.376 413.276 146.956 412.773 148.655C412.271 150.353 412.115 152.136 412.316 153.896C412.517 155.656 413.071 157.358 413.943 158.899L430.415 187.442L438.434 181.79L429.022 155.753C428.863 155.322 428.796 154.863 428.827 154.404C428.858 153.946 428.985 153.5 429.2 153.094C429.415 152.689 429.713 152.333 430.075 152.051C430.437 151.769 430.854 151.566 431.3 151.457L449.579 146.992L446.322 155.658C445.295 158.366 444.93 161.28 445.258 164.158C445.585 167.036 446.596 169.793 448.204 172.2L465.147 197.484L471.566 193.547L463.415 171.145C462.519 168.686 462.314 166.028 462.822 163.461C463.33 160.893 464.531 158.514 466.295 156.582L475.124 146.898L437.662 131.279Z" fill="#24285B"/>
<path d="M615.295 361.246H505.169V430.956H615.295V361.246Z" fill="#F2F2F2"/>
<path opacity="0.08" d="M505.451 361.246H487.549V404.014H505.451V361.246Z" fill="black"/>
<path d="M409.651 45.3283C409.651 45.3283 406.677 54.8992 417.03 52.5442C427.384 50.1891 426.593 46.892 426.593 46.892C426.593 46.892 427.384 58.1963 432.561 55.6905C437.738 53.1848 434.763 47.0239 432.561 42.8036C430.358 38.5833 429.059 37.321 423.148 36.6993C417.237 36.0776 410.385 39.5254 409.651 45.3283Z" fill="#24285B"/>
<path d="M426.763 53.4862C426.763 53.4862 426.33 50.2645 429.436 50.8862C432.542 51.5079 431.318 55.992 429.436 56.3123C427.553 56.6326 426.763 53.4862 426.763 53.4862Z" fill="#F4A28C"/>
<path d="M153.857 298.432L158.469 312.28L147.532 319.232L143.578 295.229L153.857 298.432Z" fill="#F4A28C"/>
<path d="M139.832 281.852C140.405 280.536 141.298 279.383 142.429 278.499C143.56 277.615 144.894 277.027 146.309 276.79C147.725 276.552 149.177 276.672 150.534 277.138C151.892 277.604 153.111 278.402 154.083 279.459C158.732 284.433 164.342 292.365 157.998 296.661C148.266 303.255 139.343 291.009 139.343 291.009C138.594 287.976 138.764 284.788 139.832 281.852Z" fill="#F4A28C"/>
<path d="M146.948 290.349C146.948 290.349 144.444 288.258 143.315 291.216C142.185 294.174 146.59 295.625 147.908 294.117C149.226 292.61 146.948 290.349 146.948 290.349Z" fill="#F4A28C"/>
<path d="M437.173 72.5528L447.263 66.2036C447.263 66.2036 480.038 54.9934 490.391 65.2992C500.745 75.605 501.479 114.492 475.124 146.898L437.663 131.279C437.663 131.279 438.415 112.627 432.184 107.916C425.953 103.206 418.292 89.076 437.173 72.5528Z" fill="#68E1FD"/>
<path d="M432.297 186.029C432.297 186.029 430.245 195.563 433.916 195.223C437.587 194.884 438.434 181.696 438.434 181.696L432.297 186.029Z" fill="#68E1FD"/>
<path d="M465.335 197.051C465.335 197.051 463.283 206.565 466.954 206.245C470.625 205.925 471.453 192.718 471.453 192.718L465.335 197.051Z" fill="#68E1FD"/>
<path d="M517.33 140.379C517.33 140.379 511.005 143.111 513.339 146.238C515.673 149.366 523.674 145.145 523.674 145.145L524.163 140.379H517.33Z" fill="#F4A28C"/>
<path d="M375.389 166.416C375.389 166.416 364.998 167.264 367.182 169.657C368.255 170.953 369.606 171.989 371.135 172.69C371.135 172.69 363.605 181.112 369.083 182.789C374.561 184.466 379.907 173.971 379.907 173.971L375.389 166.416Z" fill="#F4A28C"/>
<path d="M396.705 161.523L213.132 246.319L246.735 319.185L430.308 234.389L396.705 161.523Z" fill="#FFBD44"/>
<path opacity="0.58" d="M381.605 191.556L293.512 232.07L299.015 244.054L387.107 203.54L381.605 191.556Z" fill="white"/>
<path opacity="0.58" d="M392.996 216.388L304.903 256.902L310.405 268.886L398.498 228.371L392.996 216.388Z" fill="white"/>
<path d="M267.39 288.126C278.951 288.126 288.324 278.746 288.324 267.175C288.324 255.605 278.951 246.225 267.39 246.225C255.829 246.225 246.457 255.605 246.457 267.175C246.457 278.746 255.829 288.126 267.39 288.126Z" fill="white"/>
<path d="M542.612 382.592L527.928 396.874L542.612 411.174" stroke="#A5A5A5" stroke-width="2.03" stroke-linecap="round" stroke-linejoin="round"/>
<path d="M574.37 382.592L589.053 396.874L574.37 411.174" stroke="#A5A5A5" stroke-width="2.03" stroke-linecap="round" stroke-linejoin="round"/>
<path opacity="0.58" d="M360.838 122.311C360.838 122.311 342.747 117.45 338.85 100.644C338.85 100.644 366.805 94.86 367.728 123.761L360.838 122.311Z" fill="#68E1FD"/>
<path opacity="0.73" d="M363.04 120.502C363.04 120.502 350.333 100.588 361.365 81.8789C361.365 81.8789 382.693 95.3122 373.356 120.502H363.04Z" fill="#68E1FD"/>
<path d="M366.297 120.502C366.297 120.502 372.867 99.4006 393.01 95.3122C393.01 95.3122 396.775 108.99 380.058 120.502H366.297Z" fill="#68E1FD"/>
<path d="M564.204 382.592L550.123 411.174" stroke="#A5A5A5" stroke-width="2.03" stroke-linecap="round" stroke-linejoin="round"/>
<path opacity="0.63" d="M252.255 190.589H197.079V200.951H252.255V190.589Z" fill="#CECECE"/>
<path d="M145.084 316.5C145.084 316.5 112.762 336.094 108.526 382.065C108.173 385.87 109.197 389.675 111.412 392.787C113.626 395.899 116.885 398.112 120.593 399.021L158.469 408.347L145.084 316.5Z" fill="#68E1FD"/>
<path opacity="0.2" d="M145.084 316.5C145.084 316.5 112.762 336.094 108.526 382.065C108.173 385.87 109.197 389.675 111.412 392.787C113.626 395.899 116.885 398.112 120.593 399.021L158.469 408.347L145.084 316.5Z" fill="white"/>
<path d="M353.195 120.087L356.96 145.145H380.02L383.315 120.087H353.195Z" fill="#24285B"/>
<path d="M148.322 286.751C148.322 286.751 153.48 301.559 144.463 300.636C135.446 299.713 140.397 293.345 135.916 286.751C131.436 280.157 133.808 275.71 140.623 269.926C143.766 267.27 145.875 266.045 147.117 264.632C147.646 264.006 148.324 263.524 149.089 263.232C149.854 262.94 150.681 262.847 151.492 262.962C152.302 263.077 153.071 263.396 153.725 263.889C154.379 264.382 154.897 265.033 155.231 265.781C157.565 271.471 157.584 279.083 148.322 286.751Z" fill="#24285B"/>
<path opacity="0.08" d="M565.258 213.574H482.541V343.743H565.258V213.574Z" fill="black"/>
<path d="M151.856 368.307L89.4423 384.406L100.973 429.18L163.386 413.081L151.856 368.307Z" fill="#FFBD44"/>
<path opacity="0.08" d="M126.297 374.152L133.45 404.014L131.587 420.462L148.322 416.129L153.311 402.79L137.234 371.307L126.297 374.152Z" fill="black"/>
<path d="M137.611 326.127C139.146 322.717 141.4 319.679 144.217 317.221C147.033 314.763 150.347 312.942 153.932 311.884C167.75 307.72 193.992 299.016 201.748 311.884C212.365 329.594 196.1 399.134 196.1 399.134L149.659 402.733C149.659 402.733 124.038 356.687 137.611 326.127Z" fill="#68E1FD"/>
<path d="M196.025 399.191L189.907 479.094H180.249L171.628 417.014L150.28 402.789L196.025 399.191Z" fill="#24285B"/>
<path d="M150.28 402.79L136.952 479.094H147.306L169.67 415.714L150.28 402.79Z" fill="#24285B"/>
<path d="M174.018 322.529C173.392 320.568 173.233 318.487 173.555 316.454C173.876 314.421 174.669 312.491 175.869 310.819C177.069 309.147 178.644 307.779 180.467 306.826C182.29 305.872 184.311 305.359 186.368 305.327C192.279 305.139 199.074 306.156 204.289 310.377C215.904 319.797 253.987 326.203 288.361 294.72L294.969 304.875C294.969 304.875 255.926 355.745 194.782 341.124C190.134 340.07 185.822 337.87 182.239 334.725C178.655 331.58 175.914 327.588 174.263 323.113C174.169 322.924 174.094 322.717 174.018 322.529Z" fill="#68E1FD"/>
<path opacity="0.2" d="M174.018 322.529C173.392 320.568 173.233 318.487 173.555 316.454C173.876 314.421 174.669 312.491 175.869 310.819C177.069 309.147 178.644 307.779 180.467 306.826C182.29 305.872 184.311 305.359 186.368 305.327C192.279 305.139 199.074 306.156 204.289 310.377C215.904 319.797 253.987 326.203 288.361 294.72L294.969 304.875C294.969 304.875 255.926 355.745 194.782 341.124C190.134 340.07 185.822 337.87 182.239 334.725C178.655 331.58 175.914 327.588 174.263 323.113C174.169 322.924 174.094 322.717 174.018 322.529Z" fill="white"/>
<path opacity="0.08" d="M157.942 310.659C157.942 310.659 136.218 380.69 198.943 385.324L196.025 399.191L149.583 402.79C138.904 383.961 133.488 362.602 133.902 340.955C133.902 340.955 134.298 323.094 146.873 315.2C150.199 312.917 153.972 311.369 157.942 310.659Z" fill="black"/>
<path d="M138.834 479.094L132.415 483.823C132.171 483.997 131.989 484.245 131.896 484.529C131.802 484.814 131.801 485.121 131.893 485.407C131.985 485.692 132.166 485.941 132.409 486.117C132.651 486.292 132.944 486.386 133.243 486.385H144.011C144.384 486.38 144.74 486.23 145.004 485.966C145.268 485.702 145.418 485.345 145.423 484.972V479.094H138.834Z" fill="#68E1FD"/>
<path d="M189.643 479.094L195.686 483.823C195.922 484.006 196.094 484.259 196.179 484.545C196.264 484.832 196.258 485.138 196.16 485.421C196.062 485.703 195.879 485.948 195.635 486.121C195.392 486.294 195.1 486.386 194.801 486.385H187.139C186.054 486.38 185.015 485.945 184.25 485.175C183.484 484.406 183.054 483.364 183.054 482.278V479.094H189.643Z" fill="#68E1FD"/>
<path d="M638.186 188.234H501.46V328.746H638.186V188.234Z" fill="#F2F2F2"/>
<path d="M610.401 222.9H526.159V227.949H610.401V222.9Z" fill="#A5A5A5"/>
<path d="M610.401 254.797H526.159V259.846H610.401V254.797Z" fill="#A5A5A5"/>
<path d="M610.401 286.694H526.159V291.743H610.401V286.694Z" fill="#A5A5A5"/>
<path d="M606.033 213.574H606.014C601.939 213.574 598.635 216.881 598.635 220.96V229.89C598.635 233.969 601.939 237.275 606.014 237.275H606.033C610.109 237.275 613.413 233.969 613.413 229.89V220.96C613.413 216.881 610.109 213.574 606.033 213.574Z" fill="#24285B"/>
<path d="M572.657 245.471H572.638C568.562 245.471 565.258 248.778 565.258 252.857V261.787C565.258 265.866 568.562 269.173 572.638 269.173H572.657C576.732 269.173 580.036 265.866 580.036 261.787V252.857C580.036 248.778 576.732 245.471 572.657 245.471Z" fill="#68E1FD"/>
<path d="M550.066 277.387H550.048C545.972 277.387 542.668 280.694 542.668 284.772V293.703C542.668 297.782 545.972 301.088 550.048 301.088H550.066C554.142 301.088 557.446 297.782 557.446 293.703V284.772C557.446 280.694 554.142 277.387 550.066 277.387Z" fill="#FFBD44"/>
<path d="M461.871 336.358H307.563V371.552H461.871V336.358Z" fill="white"/>
<path d="M461.871 336.358H409.255V371.552H461.871V336.358Z" fill="#24285B"/>
<path d="M293.237 302.256C293.237 302.256 301.294 304.894 303.007 293.025L289.321 296.246L293.237 302.256Z" fill="#F4A28C"/>
<path opacity="0.08" d="M453.099 137.703C453.099 137.703 469.477 134.576 475.124 111.967C480.772 89.3586 468.742 71.4035 480.357 68.634C491.972 65.8644 496.792 95.3498 496.792 95.3498C496.792 95.3498 497.243 118.411 475.124 146.935L453.099 137.703Z" fill="black"/>
<path d="M487.888 63.2833C497.526 66.7123 512.586 73.5325 522.751 85.0818C525.635 88.3668 527.771 92.2405 529.009 96.4341C530.248 100.628 530.56 105.041 529.924 109.367L525.368 140.379H514.544L515.033 112.118C515.058 109.131 514.122 106.215 512.362 103.803C510.602 101.39 508.113 99.6086 505.263 98.7223C493.573 95.1426 475.632 87.1919 475.614 72.1195C475.594 70.6344 475.932 69.1665 476.6 67.8402C477.268 66.514 478.246 65.3686 479.451 64.5013C480.655 63.6341 482.051 63.0705 483.52 62.8584C484.989 62.6464 486.487 62.7921 487.888 63.2833Z" fill="#68E1FD"/>
<path opacity="0.2" d="M487.888 63.2833C497.526 66.7123 512.586 73.5325 522.751 85.0818C525.635 88.3668 527.771 92.2405 529.009 96.4341C530.248 100.628 530.56 105.041 529.924 109.367L525.368 140.379H514.544L515.033 112.118C515.058 109.131 514.122 106.215 512.362 103.803C510.602 101.39 508.113 99.6086 505.263 98.7223C493.573 95.1426 475.632 87.1919 475.614 72.1195C475.594 70.6344 475.932 69.1665 476.6 67.8402C477.268 66.514 478.246 65.3686 479.451 64.5013C480.655 63.6341 482.051 63.0705 483.52 62.8584C484.989 62.6464 486.487 62.7921 487.888 63.2833Z" fill="white"/>
<path opacity="0.08" d="M461.212 310.659H390.939V319.213H461.212V310.659Z" fill="black"/>
</svg>
